<svg xmlns="http://www.w3.org/2000/svg" viewBox="0 0 500 500">
    <title>geogebra</title>
    <path d="M238.5,48.7A39.4,39.4,0,1,1,199,88.1a39.5,39.5,0,0,1,39.5-39.4m0-18.5a57.9,57.9,0,1,0,58,57.9,58,58,0,0,0-58-57.9Z" style="fill:#5dc4f2"/>
    <path d="M63,185.5a39.4,39.4,0,1,1-39.5,39.4A39.5,39.5,0,0,1,63,185.5M63,167a57.9,57.9,0,1,0,58,57.9A58,58,0,0,0,63,167Z" style="fill:#5dc4f2"/>
    <path d="M137.6,380.3a39.4,39.4,0,1,1-39.5,39.4,39.5,39.5,0,0,1,39.5-39.4m0-18.5a57.9,57.9,0,1,0,58,57.9,58,58,0,0,0-58-57.9Z" style="fill:#5dc4f2"/>
    <path d="M359.5,348.9A39.4,39.4,0,1,1,320,388.3a39.5,39.5,0,0,1,39.5-39.4m0-18.5a57.9,57.9,0,1,0,58,57.9,58,58,0,0,0-58-57.9Z" style="fill:#5dc4f2"/>
    <path d="M437.7,153.3a39.4,39.4,0,1,1-39.5,39.4,39.5,39.5,0,0,1,39.5-39.4m0-18.5a57.9,57.9,0,1,0,58,57.9,58,58,0,0,0-58-57.9Z" style="fill:#5dc4f2"/>
    <path d="M90.3,395.3ZM84,387.7c-8-10.1-21.3-29.4-27.2-51.3A283.73,283.73,0,0,1,48,282.5l18.5,1.9c1.5,12.5,5,37.3,10.6,53.1,5.2,14.4,15,27,21.6,34.3Z" style="fill:#5dc4f2"/>
    <path d="M58.1,292.8h.1c1.9,13.8,5.2,33.9,10.2,47.8,4.4,12.2,11.6,23,17.9,30.9l-1.5,1.7c-6.9-10.1-15-24-19.1-39.3a260.72,260.72,0,0,1-7.6-41.1M38.3,272.2a284.29,284.29,0,0,0,9.5,66.5c9.5,35,35.8,62.9,35.8,62.9l27.8-30s-18.3-16.8-25.6-37.3-11-58.5-11-58.5l-36.5-3.6Z" style="fill:#5dc4f2"/>
    <path d="M89.1,169.3c8.5-9.8,24.8-27.7,43.5-43a233.68,233.68,0,0,1,45.7-29l6.3,18.2c-8.4,4.1-22.5,12.1-39.7,26.5a411,411,0,0,0-40.1,38.6Z" style="fill:#5dc4f2"/>
    <path d="M173.1,110.3l.2.6a220.93,220.93,0,0,0-34.3,24,425.89,425.89,0,0,0-35.4,33.4l-.8-.5c8.9-9.7,21.6-22.8,35.7-34.3a214.77,214.77,0,0,1,34.6-23.2m10.7-25.6a232.69,232.69,0,0,0-57,34.4C98.3,142.5,75.6,171,75.6,171l30.7,21.9A389.37,389.37,0,0,1,150.9,149c27-22.7,45.3-28.5,45.3-28.5L183.8,84.7Z" style="fill:#5dc4f2"/>
    <path d="M223.8,442.9c-11.1,0-21.9-.6-29.7-1.1l6.8-20.5a137.52,137.52,0,0,0,22.5,1.8,148.28,148.28,0,0,0,24.8-2.1c21.6-3.6,41.1-12.5,51.9-18.2l9.1,18.6c-13.4,6.1-40.3,17.6-59.7,20A189.22,189.22,0,0,1,223.8,442.9Z" style="fill:#5dc4f2"/>
    <path d="M295.9,415.2l.8,1.6c-14.7,6.3-34.3,13.6-48.3,15.4a192.14,192.14,0,0,1-24.6,1.3c-5.9,0-11.8-.2-17.1-.4l.6-1.7a149.62,149.62,0,0,0,16.1.9,155.6,155.6,0,0,0,26.3-2.2c17.9-2.9,34.4-9.3,46.2-14.9m8.2-25.2s-26.7,16.8-57.4,21.9a144.65,144.65,0,0,1-23.3,1.9c-17.6,0-28.6-3.4-28.6-3.4l-13.2,39.5s20.2,2.2,42.2,2.2a211.84,211.84,0,0,0,26.9-1.5c28.5-3.7,70.9-24.9,70.9-24.9L304.1,390Z" style="fill:#5dc4f2"/>
    <path d="M401.4,147.8a166,166,0,0,0-43.7-36c-23.4-13.4-47.4-18.3-59.3-20.1l-2.6-19.8c17.7,2.4,51.5,8.4,72.5,20.1s41.1,33,51.2,44.5Z" style="fill:#5dc4f2"/>
    <path d="M306.6,82.9c18.6,3.2,42.2,8.8,57.2,17.2,15.5,8.7,30.9,23.2,41.4,34.4l-2.2,1.3a176.6,176.6,0,0,0-40.8-32.1c-20.7-11.8-41.8-17.4-55.6-20v-.8M285.1,61.3l5.1,38.8s32.2,2.2,62.9,19.7S399.2,160,399.2,160l34.4-21.2S404.3,101.5,372.9,84s-87.8-22.7-87.8-22.7Z" style="fill:#5dc4f2"/>
    <path d="M386.4,334.1c8.2-10.2,22.8-29.5,29.9-44.8,6.4-13.7,8.3-27.8,8.8-36.9l21.1-.4a140.71,140.71,0,0,1-11,49.4c-9,20.9-24,38.6-32.2,47.3Z" style="fill:#5dc4f2"/>
    <path d="M436.2,261.5a127,127,0,0,1-9.5,36.3c-6.6,15.3-16.7,28.9-24.5,38l-3.3-2.9c8.5-11.1,19.6-26.7,25.7-39.7a109.27,109.27,0,0,0,8.9-31.7h2.7m19.3-18.9-39.5.7s1.5,21.6-8,42S373.6,335,373.6,335l30,26.3s26.3-24.1,40.2-56.3a147.11,147.11,0,0,0,11.7-62.4Z" style="fill:#5dc4f2"/>
</svg>