<svg xmlns="http://www.w3.org/2000/svg" viewBox="0 0 500 500">
    <title>gpa_calculator</title>
    <path d="M452.9,256.7H282.1a26,26,0,0,0-26,26h0V453.6a26,26,0,0,0,26,26H452.9a26,26,0,0,0,26-26h0V282.7a26,26,0,0,0-26-26ZM426.3,422.5a103.62,103.62,0,0,1-11,5,138.29,138.29,0,0,1-13.3,4.3,134.12,134.12,0,0,1-14.6,2.9,107.69,107.69,0,0,1-14.9,1,61.11,61.11,0,0,1-26.1-5A72.48,72.48,0,0,1,324.6,416a69,69,0,0,1-14.9-21.6,58,58,0,0,1-5.1-26.1,61.76,61.76,0,0,1,5.1-26.2,68.23,68.23,0,0,1,14.9-21.7,70.14,70.14,0,0,1,21.8-14.6,63.93,63.93,0,0,1,26.1-5.1,82.11,82.11,0,0,1,27.2,4.7,70.1,70.1,0,0,1,22.9,13.3l-18.5,23.1a47.24,47.24,0,0,0-13.8-8.7,43.94,43.94,0,0,0-16.1-3.1,39.71,39.71,0,0,0-15.3,2.9,36.48,36.48,0,0,0-12,8A37.26,37.26,0,0,0,339,353a40,40,0,0,0-2.9,15.2,37.18,37.18,0,0,0,3.2,16,35.43,35.43,0,0,0,21.5,19.5,47.69,47.69,0,0,0,15.8,2.6,44.6,44.6,0,0,0,4.9-.3c1.8-.2,3.5-.5,5.2-.8a28.74,28.74,0,0,0,4.6-1.5,11,11,0,0,0,3.4-2.2V382.9h-33l9.1-27.2h55.5Z" style="fill:#5dc4f2"/>
    <path d="M452.9,22.4H282.1a26,26,0,0,0-26,26h0V219.3a26,26,0,0,0,26,26H452.9a26,26,0,0,0,26-26V48.4a26,26,0,0,0-26-26ZM439.3,145H296V118.7H439.3Z" style="fill:#5dc4f2"/>
    <path d="M219.9,22.4H49.1a26,26,0,0,0-26,26h0V219.3a26,26,0,0,0,26,26H219.9a26,26,0,0,0,26-26V48.4A26.08,26.08,0,0,0,219.9,22.4ZM206,147.1H147.5v58.5H121.2V147.1H62.7V120.9h58.5V62.3h26.3v58.6H206Z" style="fill:#5dc4f2"/>
    <path d="M219.9,256.7H49.1a26,26,0,0,0-26,26h0V453.6a26,26,0,0,0,26,26H219.9a26,26,0,0,0,26-26h0V282.7A26.08,26.08,0,0,0,219.9,256.7ZM194.3,409.4l-18.6,18.5-41.3-41.4L93,427.9,74.4,409.4,115.8,368,74.4,326.6,93,308l41.4,41.4L175.7,308l18.6,18.6L152.9,368Z" style="fill:#5dc4f2"/>
</svg>