<svg id="ecb7c29f-6c73-4f84-86a6-9eb04a9819c3" data-name="klia_express" xmlns="http://www.w3.org/2000/svg" viewBox="0 0 500 500">
<path style="fill:#5DC4F2;" d="M25.5,181.83c0-44.21,0-87.84,0-132.34c8.51,0,16.04-0.03,23.57,0.01
	c51.75,0.26,103.5,0.38,155.24,0.84c50.42,0.44,97.08,15.32,142.07,37.03c45.77,22.09,86.75,50.92,123.7,85.64
	c2.31,2.17,4.07,4.93,7.23,8.83C325.3,181.83,175.47,181.83,25.5,181.83z M82.27,90.9c0,0.02,0,0.05,0,0.07
	c-10.67,0-21.36,0.3-32.02-0.1c-8.23-0.31-12.12,2.53-11.76,11.27c0.45,11,0.15,22.03,0.08,33.05c-0.05,8.02,3.37,11.89,11.85,11.78
	c21.35-0.28,42.7-0.28,64.05,0.04c7.62,0.11,10.79-3.36,10.86-10.39c0.13-12.05-0.07-24.11,0.19-36.16c0.16-7.3-3.51-9.69-10.19-9.6
	C104.31,91.01,93.29,90.9,82.27,90.9z M185.7,90.92c-11.01,0-22.03,0.11-33.04-0.04c-7.15-0.09-10.8,2.49-10.53,10.32
	c0.41,11.69,0.2,23.4,0.03,35.1c-0.1,7.32,3.12,10.64,10.54,10.59c21.68-0.15,43.37-0.24,65.05,0.06c7.11,0.1,10.24-2.93,10.28-9.62
	c0.07-12.38-0.11-24.76,0.01-37.14c0.07-7.2-3.57-9.51-10.33-9.33C207.05,91.16,196.37,90.94,185.7,90.92z M393.11,146.96
	c6.54,0,13.12,0.47,19.59-0.2c3.15-0.33,6.09-2.77,9.13-4.26c-1.86-2.93-3.06-6.87-5.7-8.63c-13.62-9.05-27.5-17.75-41.53-26.17
	c-8.46-5.08-17.22-9.74-26.16-13.93c-2.67-1.25-6.39-0.28-9.62-0.33c0.34,3.21,0,6.7,1.17,9.57c2.31,5.68,6.14,10.77,8.14,16.53
	C355.64,141.23,368.65,153.35,393.11,146.96z"/>
<path style="fill:#5DC4F2;" d="M24.32,189.83c152.55,0,303.45,0,455.09,0c1.66,13.34-10.57,15.17-18.82,20.54
	c1.57,3.11,2.87,5.66,4.87,9.62c-9.53,0-18.03,0-26.53,0c-23.45,0.01-46.91,0.24-70.36-0.08c-10.71-0.15-22.58,3.03-30.13-10.7
	c-1.94,4.09-3.02,5.7-3.48,7.48c-2.66,10.2-9.63,15.76-19.6,17.08c-10.98,1.45-19.18-3.96-24.1-13.91c-1.57-3.18-4.51-5.69-6.82-8.5
	c-2.29,2.86-5.25,5.4-6.74,8.62c-4.4,9.56-11.57,14.17-21.98,13.94c-9.96-0.23-17.1-4.85-20.45-14.26
	c-2.76-7.74-6.24-8.98-12.46-3.22c-2,1.85-5.36,3.13-8.1,3.13c-60.01,0.12-120.01-0.17-180.02,0.18
	c-8.79,0.05-10.78-3.47-10.44-10.95C24.53,203.02,24.32,197.22,24.32,189.83z"/>
<path style="fill:#5DC4F2;" d="M478.96,366.98c-11.51-0.52-21.74-0.37-31.73-1.81c-3.15-0.45-6.36-4.78-8.35-8.06
	c-3.75-6.17-8.18-9.29-15.84-8.72c-9.6,0.72-19.29,0.33-28.94,0.17c-10.6-0.18-21.16-1.73-26.33,11.74
	c-1.24,3.24-8.18,5.39-12.77,6.01c-7.35,0.98-14.92,0.26-24.78,0.26c9.78-13.52,17.97-25.02,26.36-36.38
	c10.2-13.82,20.31-27.72,30.97-41.18c6.29-7.94,32.71-7.51,38.39,0.45c16.97,23.77,33.66,47.75,50.42,71.67
	C477.09,362.19,477.44,363.51,478.96,366.98z M421.25,332.27c-5.23-8.61-9.12-15.57-13.72-22.02c-0.78-1.09-5.94-0.96-6.83,0.25
	c-4.68,6.39-8.64,13.3-13.94,21.77C399.18,332.27,408.86,332.27,421.25,332.27z"/>
<path style="fill:#5DC4F2;" d="M147.27,286.64c-16.51,9.36-33.01,18.71-51.07,28.95c20.73,16.68,40.29,32.41,62.42,50.21
	c-18.08-0.84-33.85,4.83-47.72-8.04c-9.52-8.84-19.69-17.15-30.45-24.39c-3.55-2.39-10.11-1.72-14.84-0.56
	c-5.45,1.34-8.54,5.17-8.4,12.12c0.43,22.12-3.65,25.35-25.54,21.16c-2.19-0.42-5.23-4.38-5.27-6.73
	c-0.39-24.44-0.24-48.89-0.24-75.03c9.19,0,17.67-0.44,26.03,0.33c1.95,0.18,4.79,4.31,5.04,6.83c0.69,7.09,0.24,14.29,0.24,24.22
	c14.66-8.35,28.3-14.25,39.69-23.06C113,280.38,130.06,285.18,147.27,286.64z"/>
<path style="fill:#5DC4F2;" d="M200.88,349.15c22.99,0,44.26,0,65.32,0c4.31,15.37,2.93,17.39-11.35,17.42
	c-24.11,0.05-48.21,0.15-72.32,0.04c-3.98-0.02-7.95-1.02-12.31-1.63c0-27.14,0-53.5,0-80.48c9.93,0,19.43,0,30.67,0
	C200.88,305.79,200.88,327.15,200.88,349.15z"/>
<path style="fill:#5DC4F2;" d="M320.16,365.59c-10.01,0-19.44,0-29.78,0c0-26.66,0-53.21,0-80.62c9.57,0,19.3,0,29.78,0
	C320.16,311.45,320.16,337.74,320.16,365.59z"/>
<path style="fill:#5DC4F2;" d="M107.57,422.86H77.86c0.27,2.38,0.91,4.15,1.93,5.32c1.43,1.67,3.3,2.51,5.61,2.51
	c1.46,0,2.84-0.36,4.15-1.09c0.8-0.46,1.66-1.27,2.58-2.44l14.6,1.35c-2.23,3.88-4.93,6.67-8.08,8.36
	c-3.16,1.69-7.68,2.53-13.58,2.53c-5.12,0-9.15-0.72-12.09-2.17c-2.94-1.44-5.37-3.74-7.3-6.88s-2.89-6.84-2.89-11.09
	c0-6.04,1.94-10.94,5.81-14.67c3.87-3.74,9.22-5.61,16.04-5.61c5.53,0,9.9,0.84,13.11,2.51s5.64,4.1,7.32,7.28
	s2.51,7.32,2.51,12.42V422.86z M92.5,415.76c-0.29-2.86-1.06-4.92-2.31-6.15c-1.25-1.24-2.89-1.86-4.93-1.86
	c-2.35,0-4.24,0.93-5.64,2.8c-0.9,1.17-1.47,2.9-1.71,5.21H92.5z"/>
<path style="fill:#5DC4F2;" d="M121.84,385.14h15.15v27.55l11.07-12.84h18.24l-13.87,13.54l14.67,25.12h-16.7l-7.83-15.5
	l-5.58,5.45v10.05h-15.15V385.14z"/>
<path style="fill:#5DC4F2;" d="M176.41,427.78l14.71-1.38c0.61,1.75,1.46,3,2.55,3.75c1.09,0.75,2.55,1.13,4.37,1.13
	c1.99,0,3.53-0.42,4.62-1.27c0.85-0.63,1.27-1.42,1.27-2.36c0-1.07-0.56-1.89-1.67-2.47c-0.8-0.41-2.93-0.92-6.37-1.53
	c-5.15-0.9-8.72-1.73-10.72-2.49c-2-0.76-3.69-2.05-5.06-3.87c-1.37-1.82-2.06-3.89-2.06-6.22c0-2.55,0.74-4.74,2.22-6.58
	c1.48-1.84,3.52-3.22,6.12-4.13c2.6-0.91,6.08-1.36,10.45-1.36c4.61,0,8.02,0.35,10.21,1.06c2.2,0.71,4.03,1.8,5.5,3.28
	s2.69,3.48,3.66,6.01l-14.05,1.38c-0.36-1.24-0.97-2.15-1.82-2.73c-1.17-0.78-2.57-1.17-4.22-1.17c-1.67,0-2.9,0.3-3.66,0.89
	c-0.76,0.59-1.15,1.31-1.15,2.16c0,0.95,0.48,1.66,1.46,2.14c0.97,0.48,3.08,0.92,6.34,1.31c4.93,0.56,8.59,1.33,11,2.33
	c2.4,1,4.24,2.41,5.52,4.26s1.91,3.87,1.91,6.07c0,2.23-0.67,4.4-2.02,6.51c-1.35,2.11-3.47,3.79-6.37,5.04
	c-2.9,1.25-6.85,1.87-11.85,1.87c-7.06,0-12.09-1.01-15.09-3.02C179.18,434.36,177.26,431.49,176.41,427.78z"/>
<path style="fill:#5DC4F2;" d="M232.11,453.23v-53.38h13.87v5.72c1.92-2.4,3.68-4.03,5.28-4.88c2.16-1.14,4.55-1.71,7.17-1.71
	c5.17,0,9.17,1.98,12,5.94c2.83,3.96,4.24,8.85,4.24,14.67c0,6.43-1.54,11.34-4.63,14.73c-3.08,3.39-6.98,5.08-11.69,5.08
	c-2.28,0-4.36-0.39-6.24-1.17s-3.56-1.93-5.04-3.46v18.46H232.11z M246.97,419.29c0,3.06,0.64,5.33,1.93,6.81
	c1.29,1.48,2.91,2.22,4.88,2.22c1.72,0,3.17-0.71,4.33-2.13c1.16-1.42,1.75-3.83,1.75-7.23c0-3.13-0.61-5.43-1.82-6.9
	c-1.21-1.47-2.69-2.2-4.44-2.2c-1.89,0-3.47,0.74-4.73,2.22C247.6,413.57,246.97,415.97,246.97,419.29z"/>
<path style="fill:#5DC4F2;" d="M289.38,399.85h13.87v6.33c1.33-2.74,2.71-4.63,4.13-5.66c1.42-1.03,3.17-1.55,5.26-1.55
	c2.18,0,4.58,0.68,7.17,2.04l-4.59,10.56c-1.75-0.73-3.13-1.09-4.15-1.09c-1.94,0-3.45,0.8-4.52,2.4
	c-1.53,2.26-2.29,6.48-2.29,12.67v12.96h-14.89V399.85z"/>
<path style="fill:#5DC4F2;" d="M373.92,422.86h-29.71c0.27,2.38,0.91,4.15,1.93,5.32c1.43,1.67,3.3,2.51,5.61,2.51
	c1.46,0,2.84-0.36,4.15-1.09c0.8-0.46,1.66-1.27,2.59-2.44l14.6,1.35c-2.23,3.88-4.93,6.67-8.08,8.36
	c-3.16,1.69-7.68,2.53-13.58,2.53c-5.12,0-9.15-0.72-12.09-2.17c-2.94-1.44-5.37-3.74-7.3-6.88s-2.9-6.84-2.9-11.09
	c0-6.04,1.94-10.94,5.81-14.67s9.22-5.61,16.04-5.61c5.53,0,9.9,0.84,13.11,2.51s5.64,4.1,7.32,7.28s2.51,7.32,2.51,12.42V422.86z
		M358.84,415.76c-0.29-2.86-1.06-4.92-2.31-6.15c-1.25-1.24-2.89-1.86-4.93-1.86c-2.35,0-4.24,0.93-5.64,2.8
	c-0.9,1.17-1.47,2.9-1.71,5.21H358.84z"/>
<path style="fill:#5DC4F2;" d="M385.56,427.78l14.71-1.38c0.61,1.75,1.46,3,2.55,3.75c1.09,0.75,2.55,1.13,4.37,1.13
	c1.99,0,3.53-0.42,4.63-1.27c0.85-0.63,1.27-1.42,1.27-2.36c0-1.07-0.56-1.89-1.67-2.47c-0.8-0.41-2.92-0.92-6.37-1.53
	c-5.15-0.9-8.72-1.73-10.72-2.49c-2-0.76-3.69-2.05-5.06-3.87c-1.37-1.82-2.06-3.89-2.06-6.22c0-2.55,0.74-4.74,2.22-6.58
	c1.48-1.84,3.52-3.22,6.12-4.13s6.08-1.36,10.45-1.36c4.61,0,8.02,0.35,10.21,1.06c2.2,0.71,4.03,1.8,5.5,3.28s2.69,3.48,3.66,6.01
	l-14.05,1.38c-0.36-1.24-0.97-2.15-1.82-2.73c-1.17-0.78-2.57-1.17-4.22-1.17c-1.67,0-2.89,0.3-3.66,0.89
	c-0.76,0.59-1.15,1.31-1.15,2.16c0,0.95,0.49,1.66,1.46,2.14c0.97,0.48,3.08,0.92,6.34,1.31c4.93,0.56,8.59,1.33,11,2.33
	c2.4,1,4.24,2.41,5.52,4.26s1.91,3.87,1.91,6.07c0,2.23-0.67,4.4-2.02,6.51c-1.35,2.11-3.47,3.79-6.37,5.04
	c-2.9,1.25-6.85,1.87-11.85,1.87c-7.06,0-12.09-1.01-15.09-3.02C388.33,434.36,386.41,431.49,385.56,427.78z"/>
</svg>
