<svg id="abd8c433-34be-447a-9654-7918d106dbdc" data-name="Layer 1" xmlns="http://www.w3.org/2000/svg" xmlns:xlink="http://www.w3.org/1999/xlink" viewBox="0 0 153.84 426.09"><defs><clipPath id="b1b7fdaf-8e31-4665-9a5f-66122c65cb4c" transform="translate(-5.07 -9.68)"><path d="M52.57,252.82S55,357.62,83.65,394.35c0,0-24.39.06-22.43,14.31l34.21-2.78,2.66-17.74V242.35Z" style="fill:none"/></clipPath><clipPath id="ae0da06b-aa63-4fd8-9a2a-eee69fa6a239" transform="translate(-5.07 -9.68)"><path d="M56.57,254.88S76.81,377.38,99.1,399.42c0,0-22.38,1-21.7,16.13l35.81-1.86S134.66,253,132.29,247.92,56.57,254.88,56.57,254.88Z" style="fill:none"/></clipPath><clipPath id="a11b82a3-9001-41d2-86ba-0dc62a12310a" transform="translate(-5.07 -9.68)"><path d="M55,196.17s-7.66,52.84-6,58.9,64,16.89,87,5.69c0,0,11-107.72-19.42-122S55,196.17,55,196.17Z" style="fill:none"/></clipPath><clipPath id="abd98eca-4e48-438d-ad8f-e8a75bfbca35" transform="translate(-5.07 -9.68)"><path d="M52.16,202.69s-6.16,41.54-4.8,45.05c0,0,52.06,19.61,91.21.52,0,0,8.63-98.21-20.5-109Z" style="fill:none"/></clipPath></defs><title>xmux</title><ellipse cx="81.44" cy="404.66" rx="50.44" ry="11.52" style="fill:#a7a9ac"/><path d="M14.23,186.53,9.7,210.59a5.64,5.64,0,1,0,4,.76l4.54-24.06a5.64,5.64,0,0,0,4.51-6.58,6.24,6.24,0,0,0-.26-.94,1.7,1.7,0,0,0-3.25.35l-.15.83a1.7,1.7,0,0,1-2,1.36h0a1.7,1.7,0,0,1-1.36-2v0l.16-.83A1.71,1.71,0,0,0,13,178a5.63,5.63,0,0,0,.44,8,5,5,0,0,0,.78.59Zm-3.4,31.17a1.56,1.56,0,0,1-1.66-1.47,1.54,1.54,0,0,1,.14-.76,1.57,1.57,0,0,1,2.09-.76,1.57,1.57,0,0,1-.57,3Z" transform="translate(-5.07 -9.68)" style="fill:#2950aa"/><path d="M88.92,110q-1.19,6.84-2.35,13.69c-.39,2.29,1.33,2.61,3.13,2,0,0,.25,2.33.31,2.53.88,3.55,5.83,5.61,9,6,3.89.52,8.2-.62,10.79-3.68,3.06-3.61,4.24-8.59,4.81-13.17,1.81-14.68.2-15,.2-15Z" transform="translate(-5.07 -9.68)" style="fill:#ffcea0"/><path d="M83.46,108.3s2.92-22,19.92-20.9,16.3,19.44,16.3,19.44Z" transform="translate(-5.07 -9.68)" style="fill:#ffce4a"/><path d="M81.43,109.16l.09,3.23L120.14,109l1-3.21S88.89,104.84,81.43,109.16Z" transform="translate(-5.07 -9.68)" style="fill:#ffda3d"/><path d="M92.73,106.79c-.12,0,.85-5.23.94-5.55,1.12-4.17,3.27-7.71,7.49-9.29a10.31,10.31,0,0,1,11.34,2.41,19.32,19.32,0,0,1,4.33,10.53c.07.55.13,1.1.17,1.65Z" transform="translate(-5.07 -9.68)" style="fill:#ffda3d"/><path d="M52.57,252.82S55,357.62,83.65,394.35c0,0-24.39.06-22.43,14.31l34.21-2.78,2.66-17.74V242.35Z" transform="translate(-5.07 -9.68)" style="fill:#2950aa"/><g style="clip-path:url(#b1b7fdaf-8e31-4665-9a5f-66122c65cb4c)"><polygon points="69.2 375.72 105.36 375.72 95.56 407.13 39.48 404.6 51.51 379.94 69.2 375.72" style="fill:#ffce4a"/><g style="opacity:0.30000001192092896"><circle cx="53.97" cy="317.03" r="9.38"/></g></g><path d="M56.57,254.88S76.81,377.38,99.1,399.42c0,0-22.38,1-21.7,16.13l35.81-1.86S134.66,253,132.29,247.92,56.57,254.88,56.57,254.88Z" transform="translate(-5.07 -9.68)" style="fill:#296cd0"/><g style="clip-path:url(#ae0da06b-aa63-4fd8-9a2a-eee69fa6a239)"><g style="opacity:0.30000001192092896"><rect x="98.57" y="248.67" width="3.04" height="154.52" transform="translate(-28.33 -1.6) rotate(-4.14)"/></g><path d="M84.66,378.9l42.82-4.39-15.2,61.26-45.61-4.39s7.26-27,8.66-26.85S84.66,378.9,84.66,378.9Z" transform="translate(-5.07 -9.68)" style="fill:#ffda3d"/><path d="M133.22,254c-.5,0-4.78,2.24-8.5,4.26a10.86,10.86,0,0,0-5.67,9.43l-.13,10.61a10.85,10.85,0,0,0,3.49,8.11l9.88,9.14Z" transform="translate(-5.07 -9.68)" style="fill:#2950d0"/><path d="M64.5,261.37s15.51,4.57,21.85,4.71l.08,3.37s-15.48-1.93-22-4.76Z" transform="translate(-5.07 -9.68)" style="fill:#2950d0"/><g style="opacity:0.30000001192092896"><circle cx="65.66" cy="317.35" r="9.8"/></g></g><path d="M55,196.17s-7.66,52.84-6,58.9,64,16.89,87,5.69c0,0,11-107.72-19.42-122S55,196.17,55,196.17Z" transform="translate(-5.07 -9.68)" style="fill:#154f9a"/><g style="clip-path:url(#a11b82a3-9001-41d2-86ba-0dc62a12310a)"><g style="opacity:0.30000001192092896"><path d="M45.18,249.9s67.69,25.14,96.5-3.47l-98.5-1.53Z" transform="translate(-5.07 -9.68)"/></g></g><path d="M52.16,202.69s-6.16,41.54-4.8,45.05c0,0,52.06,19.61,91.21.52,0,0,8.63-98.21-20.5-109Z" transform="translate(-5.07 -9.68)" style="fill:#ffda3d"/><g style="clip-path:url(#abd98eca-4e48-438d-ad8f-e8a75bfbca35)"><path d="M90.33,265.07l-2.17-.41C97,217.92,90.75,196,90.69,195.78l2.12-.63C93.08,196.05,99.22,217.8,90.33,265.07Z" transform="translate(-5.07 -9.68)" style="fill:#d5a522"/><path d="M45.79,214.89s36.33,3.88,47,.41l-.07,6.86S67,225.58,45.16,219.64Z" transform="translate(-5.07 -9.68)" style="fill:#ffffcd"/><path d="M45.31,226.08s36.73,4.32,47.43.85l-.47,6.43s-25.72,3.42-47.56-2.52Z" transform="translate(-5.07 -9.68)" style="fill:#ffffcd"/><polygon points="134.88 147.49 119.66 163.77 120.64 187.04 138.99 195.51 134.88 147.49" style="fill:#ffffcd"/><g style="opacity:0.30000001192092896"><path d="M48.7,208.86l.22,7.65s74.2,3.5,79.73-46.54-52.41-7.62-52.41-7.62Z" transform="translate(-5.07 -9.68)"/></g></g><path d="M46.24,189.07A18,18,0,0,0,55,184a48,48,0,0,0,8.17-13.61c1.78-4.28,2.56-8.91,3.93-13.32,4.67-15.07,21.8-25.13,37.23-24.13,10.25.66,21.41,5.67,23.92,16.55,2.17,9.36-.16,20-3.9,28.7-5.22,12.06-16.71,19.11-28.11,24.54a122,122,0,0,1-26.69,9,95.79,95.79,0,0,1-30.82,1.32c-9.29-1.06-21.1-2.51-28.44-8.78-1.69-1.45-3.1-3.66-2.5-5.81,1.65-5.92,13.82-6.55,18.68-7.1C32.34,190.7,39.88,190.91,46.24,189.07Z" transform="translate(-5.07 -9.68)" style="fill:#ffcea0"/><path d="M124.31,178.17c-5.21,12.07-16.71,19.1-28.11,24.54a121.08,121.08,0,0,1-25.38,8.73,39.64,39.64,0,0,1-20.69-26.33,30.94,30.94,0,0,0,13-14.74c1.79-4.28,2.57-8.91,3.94-13.32,4.67-15.07,21.81-25.14,37.23-24.14,10.24.67,21.4,5.68,23.92,16.56C130.38,158.83,128.05,169.51,124.31,178.17Z" transform="translate(-5.07 -9.68)" style="fill:#2a4eff"/><g style="opacity:0.30000001192092896"><path d="M96.74,153.34l7.51,2.64a3.22,3.22,0,0,1,2,3.91l-2.79,9.91a3.22,3.22,0,0,1-2.49,2.29l-5.82,1.11A3.21,3.21,0,0,1,91.48,171l-1.58-4.92a3.34,3.34,0,0,1,0-1.93l2.68-8.75a3.2,3.2,0,0,1,4-2.14Z" transform="translate(-5.07 -9.68)"/></g><rect x="2.94" width="150.9" height="40.62" rx="14.39" style="fill:#e6e7e8"/><path d="M48,25.82h2.5V37H48Z" transform="translate(-5.07 -9.68)" style="fill:#383838"/><path d="M53,28.16a1.13,1.13,0,0,1-.53-1,1.33,1.33,0,0,1,.37-1,1.3,1.3,0,0,1,.95-.37,1.36,1.36,0,0,1,.94.35,1.15,1.15,0,0,1,.38.92,2,2,0,0,1-.35,1.1l-1.17,1.7H52.28Z" transform="translate(-5.07 -9.68)" style="fill:#383838"/><path d="M59.26,37h-2.4V25.13h2.4Z" transform="translate(-5.07 -9.68)" style="fill:#383838"/><path d="M63.94,37H61.53V25.13h2.41Z" transform="translate(-5.07 -9.68)" style="fill:#383838"/><path d="M77.76,37H75.5V36a2.81,2.81,0,0,1-2.29,1.17,3.38,3.38,0,0,1-2.3-.79A2.62,2.62,0,0,1,70,34.27a2.22,2.22,0,0,1,1-2,4.59,4.59,0,0,1,2.63-.66H75.4v-.05c0-.92-.49-1.38-1.46-1.38a4.23,4.23,0,0,0-1.32.25,4.44,4.44,0,0,0-1.18.62L70.37,29.5a6.37,6.37,0,0,1,3.88-1.24,4,4,0,0,1,2.56.79,3,3,0,0,1,1,2.48Zm-2.42-3.28V33.3h-1.5q-1.44,0-1.44.9a.8.8,0,0,0,.34.71,1.61,1.61,0,0,0,1,.25,1.78,1.78,0,0,0,1.13-.39,1.27,1.27,0,0,0,.47-1Z" transform="translate(-5.07 -9.68)" style="fill:#383838"/><path d="M86.45,34.33a2.54,2.54,0,0,1-.94,2,3.6,3.6,0,0,1-2.38.77,6.18,6.18,0,0,1-2-.34,6.08,6.08,0,0,1-1.88-1l1.06-1.5a4.62,4.62,0,0,0,2.87,1,1.28,1.28,0,0,0,.74-.19.57.57,0,0,0,.27-.49.71.71,0,0,0-.38-.56,4.41,4.41,0,0,0-1.09-.48c-.47-.15-.84-.27-1.09-.38a5.51,5.51,0,0,1-.86-.47,2,2,0,0,1-1-1.8,2.4,2.4,0,0,1,1-2,3.93,3.93,0,0,1,2.48-.75,5.39,5.39,0,0,1,3,1l-.9,1.6A3.93,3.93,0,0,0,83.11,30c-.74,0-1.11.2-1.11.61a.61.61,0,0,0,.35.53,8.3,8.3,0,0,0,1.17.45c.55.17.93.3,1.16.39a6.46,6.46,0,0,1,.83.42A2,2,0,0,1,86.45,34.33Z" transform="translate(-5.07 -9.68)" style="fill:#383838"/><path d="M94.78,34.33a2.46,2.46,0,0,1-.94,2,3.58,3.58,0,0,1-2.38.77,6.18,6.18,0,0,1-2-.34,6.08,6.08,0,0,1-1.88-1l1.06-1.5a4.62,4.62,0,0,0,2.87,1,1.28,1.28,0,0,0,.74-.19.57.57,0,0,0,.27-.49.71.71,0,0,0-.38-.56,4.41,4.41,0,0,0-1.09-.48c-.47-.15-.84-.27-1.09-.38a5.41,5.41,0,0,1-.85-.47,2,2,0,0,1-1-1.8,2.4,2.4,0,0,1,1-2,3.93,3.93,0,0,1,2.48-.75,5.39,5.39,0,0,1,3,1l-.9,1.6A4,4,0,0,0,91.51,30c-.75,0-1.12.2-1.12.61a.61.61,0,0,0,.35.53,8.3,8.3,0,0,0,1.17.45q.82.26,1.17.39a6.34,6.34,0,0,1,.82.42A2,2,0,0,1,94.78,34.33Z" transform="translate(-5.07 -9.68)" style="fill:#383838"/><path d="M96.82,27.3a1.42,1.42,0,1,1,1,.41A1.34,1.34,0,0,1,96.82,27.3ZM99,37H96.6V28.4H99Z" transform="translate(-5.07 -9.68)" style="fill:#383838"/><path d="M107.79,34.33a2.54,2.54,0,0,1-.94,2,3.58,3.58,0,0,1-2.38.77,6.18,6.18,0,0,1-2-.34,6.08,6.08,0,0,1-1.88-1l1.06-1.5a4.62,4.62,0,0,0,2.87,1,1.28,1.28,0,0,0,.74-.19.57.57,0,0,0,.27-.49.71.71,0,0,0-.38-.56,4.41,4.41,0,0,0-1.09-.48c-.47-.15-.84-.27-1.09-.38a5.51,5.51,0,0,1-.86-.47,2,2,0,0,1-1-1.8,2.4,2.4,0,0,1,1-2,3.93,3.93,0,0,1,2.48-.75,5.39,5.39,0,0,1,3,1l-.9,1.6A3.93,3.93,0,0,0,104.5,30c-.74,0-1.11.2-1.11.61a.61.61,0,0,0,.35.53,8.3,8.3,0,0,0,1.17.45c.55.17.93.3,1.17.39a6.34,6.34,0,0,1,.82.42A2,2,0,0,1,107.79,34.33Z" transform="translate(-5.07 -9.68)" style="fill:#383838"/><path d="M112.43,30.13V34a1.08,1.08,0,0,0,.26.77.78.78,0,0,0,.61.28,1.41,1.41,0,0,0,1.14-.6l.89,1.68a3.47,3.47,0,0,1-2.36,1,2.86,2.86,0,0,1-3-2.71V30.13h-1V28.4h1V25.82h2.42V28.4h2.09v1.73Z" transform="translate(-5.07 -9.68)" style="fill:#383838"/><path d="M116.58,25.82h2.84v2l-.48,5.77h-1.89l-.47-5.77ZM117,36.73a1.34,1.34,0,0,1-.41-1A1.4,1.4,0,0,1,118,34.32h0a1.4,1.4,0,0,1,1.41,1.41A1.4,1.4,0,0,1,118,37.14h0A1.34,1.34,0,0,1,117,36.73Z" transform="translate(-5.07 -9.68)" style="fill:#383838"/><polygon points="102.06 40.62 113.16 53.66 114.42 36.54 102.06 40.62" style="fill:#e6e7e8"/></svg>