<svg xmlns="http://www.w3.org/2000/svg" viewBox="0 0 1133.6 566.9">
    <title>news</title>
    <g style="isolation:isolate">
        <rect width="1132.8" height="566.9" style="fill:#787e82"/>
    </g>
    <g style="isolation:isolate">
        <rect y="0.7" width="23" height="565.4" style="fill:#fff"/>
    </g>
    <g style="isolation:isolate">
        <rect x="4.6" y="0.7" width="1129" height="24" style="fill:#fff"/>
    </g>
    <g style="isolation:isolate">
        <rect x="1109.5" y="1.2" width="24" height="565.4" style="fill:#fff"/>
    </g>
    <polygon points="826.8 353.3 316.3 353.3 316.3 373.9 835 373.9 826.8 353.3" style="fill:#ada8a5"/>
    <rect x="102.1" y="364" width="4.8" height="41.1" style="fill:#ada8a5"/>
    <rect x="825.1" y="289.9" width="1.4" height="114.2" style="fill:#ada8a5"/>
    <rect x="1054" y="438.5" width="1" height="125.6" style="fill:#ada8a5"/>
    <rect x="72.1" y="436.8" width="1.7" height="129.4" style="fill:#ada8a5"/>
    <rect x="84.8" y="365.4" width="244.2" height="8.6" style="fill:#ada8a5"/>
    <rect x="519.4" y="445.4" width="16.9" height="36.2" style="fill:#ada8a5"/>
    <rect x="565.6" y="445.4" width="37.9" height="36.2" style="fill:#ada8a5"/>
    <rect x="631.1" y="445.4" width="38.6" height="41.4" style="fill:#ada8a5"/>
    <rect x="707.7" y="445.4" width="31" height="41.4" style="fill:#ada8a5"/>
    <rect x="241.1" y="296" width="41.7" height="41.7" style="fill:#633c23"/>
    <rect x="118.3" y="364" width="12.4" height="113.2" style="fill:#d4cdc9"/>
    <rect x="264.2" y="364.7" width="11.7" height="39.3" style="fill:#d4cdc9"/>
    <rect x="281.4" y="308.1" width="11.7" height="30" style="fill:#d4cdc9"/>
    <rect x="348.3" y="307.8" width="11.7" height="96.3" style="fill:#d4cdc9"/>
    <rect x="998.8" y="347.8" width="9.7" height="14.5" style="fill:#d4cdc9"/>
    <rect x="847" y="347.8" width="10.3" height="13.1" style="fill:#d4cdc9"/>
    <rect x="908.4" y="348.5" width="4.1" height="12.4" style="fill:#d4cdc9"/>
    <rect x="376.3" y="233.9" width="65.9" height="53.5" style="fill:#d4cdc9"/>
    <polygon points="339 340.2 294.2 340.2 294.2 350.6 343.8 350.6 339 340.2" style="fill:#d4cdc9"/>
    <rect x="919.5" y="481" width="175.9" height="3.8" style="fill:#d4cdc9"/>
    <rect x="241.1" y="289.8" width="140.7" height="9" style="fill:#d4cdc9"/>
    <rect x="253.8" y="298.1" width="10.7" height="27.6" style="fill:#d4cdc9"/>
    <rect x="305.9" y="348.1" width="10.3" height="56.6" style="fill:#d4cdc9"/>
    <rect x="1026" y="347.1" width="20.3" height="56.9" style="fill:#d4cdc9"/>
    <rect x="852.6" y="291.6" width="3.4" height="36.9" style="fill:#633c23"/>
    <polygon points="253.2 283.3 237.6 290.2 409 290.2 409 283.3 253.2 283.3" style="fill:#ece8e5"/>
    <rect x="835" y="359.5" width="34.1" height="4.5" style="fill:#ece8e5"/>
    <rect x="959.1" y="359.5" width="58.3" height="4.5" style="fill:#ece8e5"/>
    <rect x="862.6" y="466.8" width="40.7" height="41.4" style="fill:#ece8e5"/>
    <rect x="607.3" y="466.8" width="234.9" height="2.1" style="fill:#ece8e5"/>
    <rect x="863.9" y="561.4" width="38.6" height="5.5" style="fill:#ece8e5"/>
    <rect x="864.6" y="544.5" width="38.3" height="3.8" style="fill:#ece8e5"/>
    <rect x="1013.3" y="546.9" width="71.4" height="1.4" style="fill:#ece8e5"/>
    <rect x="37.9" y="474.4" width="188.3" height="6.9" style="fill:#ece8e5"/>
    <rect x="272.1" y="299.8" width="95.5" height="8.6" style="fill:#ece8e5"/>
    <rect x="895.7" y="547.9" width="6.2" height="14.1" style="fill:#ece8e5"/>
    <rect x="864.6" y="547.6" width="2.4" height="14.5" style="fill:#ece8e5"/>
    <polygon points="608.4 484.8 608.4 514.8 1070.2 514.8 1095.4 484.8 608.4 484.8" style="fill:#ece8e5"/>
    <rect x="132.1" y="511.3" width="124.5" height="54.9" style="fill:#ece8e5"/>
    <rect x="260.4" y="438.5" width="16.2" height="42.8" style="fill:#ece8e5"/>
    <rect x="404.9" y="438.5" width="16.2" height="42.8" style="fill:#ece8e5"/>
    <rect x="549.4" y="438.5" width="16.2" height="42.8" style="fill:#ece8e5"/>
    <rect x="695.3" y="438.5" width="16.2" height="46.6" style="fill:#ece8e5"/>
    <rect x="897.4" y="359.5" width="28.3" height="4.5" style="fill:#ece8e5"/>
    <rect x="372.8" y="231.2" width="72.1" height="3.1" style="fill:#ece8e5"/>
    <rect x="378.3" y="227" width="62.8" height="4.5" style="fill:#ece8e5"/>
    <rect x="848.4" y="316.7" width="189.3" height="11.4" style="fill:#ece8e5"/>
    <rect x="351.1" y="291.9" width="3.8" height="10" style="fill:#633c23"/>
    <rect x="838.8" y="364" width="26.2" height="202.9" style="fill:#853"/>
    <rect x="962.9" y="364" width="50.4" height="202.9" style="fill:#853"/>
    <rect x="396.6" y="515.5" width="26.9" height="51.4" style="fill:#853"/>
    <rect x="256.6" y="515.1" width="19.3" height="51.4" style="fill:#853"/>
    <rect x="105.5" y="515.1" width="26.6" height="51.4" style="fill:#853"/>
    <rect x="689.1" y="491" width="26.2" height="75.9" style="fill:#853"/>
    <rect x="551.1" y="515.3" width="15.2" height="51.5" style="fill:#853"/>
    <rect x="326.9" y="296" width="547" height="2.8" style="fill:#853"/>
    <rect x="382.1" y="242.9" width="47.6" height="40.4" style="fill:#853"/>
    <rect x="901.2" y="364" width="20.7" height="202.9" style="fill:#853"/>
    <rect x="37.9" y="403" width="1057.4" height="37.3" style="fill:#fff"/>
    <polygon points="780.8 566.5 709.1 523.4 675.7 523.4 628 494.8 627.8 494.8 602.5 479.6 37.9 479.6 37.9 515.1 627.1 515.1 664.9 537.9 698.4 537.9 746 566.5 780.8 566.5" style="fill:#fff"/>
    <path d="M201.4,312.6c-82.8,0-116.6,53.1-116.6,53.1H329S284.2,312.6,201.4,312.6Z" style="fill:#fff"/>
    <polygon points="603.5 259.5 325.6 292.6 875.3 292.6 603.5 259.5" style="fill:#fff"/>
    <polygon points="1051.2 326.4 811.2 326.4 797.4 349.5 1065.7 349.5 1051.2 326.4" style="fill:#fff"/>
    <rect x="220" y="462" width="380.8" height="1.7" style="fill:#fff"/>
    <rect x="276.2" y="387.8" width="789.5" height="1.7" style="fill:#fff"/>
    <rect x="672.5" y="505.8" width="35.2" height="1.7" style="fill:#fff"/>
    <rect x="635.67" y="442.23" width="1.7" height="85.3" transform="translate(-107.07 780.42) rotate(-58.97)" style="fill:#fff"/>
    <rect x="742.93" y="486.01" width="1.7" height="85.3" transform="translate(-92.61 893.55) rotate(-58.97)" style="fill:#fff"/>
    <polygon points="1015.9 85.4 983.3 86.9 1018.6 102.7 1051.9 101.8 1015.9 85.4" style="fill:#fff"/>
    <path d="M1017.8,104.2l-16.3-7.4-5,18a46.44,46.44,0,0,1,11,.5c5.4,1,14.2,4.8,14.2,4.8l.5,3.4,6-19.9Z" style="fill:#fff"/>
    <polygon points="1051.2 102.2 1051.2 116.2 1050.2 116.2 1050.2 130.8 1051.7 130.8 1051.7 102.2 1051.2 102.2" style="fill:#fff"/>
    <circle cx="143.9" cy="133.1" r="40.7" style="fill:#fff"/>
    <polygon points="107.3 151 143.4 213.8 180.1 151.3 107.3 151" style="fill:#fff"/>
    <circle cx="144" cy="133.2" r="31" style="fill:#787e82"/>
    <rect x="138.7" y="147" width="10.1" height="10.1" style="fill:#fff"/>
    <rect x="138.7" y="111.2" width="10.1" height="28.6" style="fill:#fff"/>
    <path d="M283.1,176.5a34.1,34.1,0,1,1-.2-48.4l-1.3,1.2a32.5,32.5,0,1,0,.1,45.9Z" style="fill:#fff"/>
    <path d="M301.4,186.5l31.9-68.3h1.9l32.1,68.3h-2l-10.4-21.9H313.6l-10.2,21.9Zm13.1-23.8H354l-19.7-42.4Z" style="fill:#fff"/>
    <path d="M458.2,119.9,424,154.1,389.9,120v66.5H388V118.2h2.6l33.3,33.4,33.4-33.4h2.6v68.3h-1.8V119.9Z" style="fill:#fff"/>
    <path d="M530.2,138.4A20.19,20.19,0,0,1,510,158.5H488.7v27.9H487V118.1h23A20.42,20.42,0,0,1,530.2,138.4Zm-41.5-18.5v36.9H510a18.45,18.45,0,0,0-.2-36.9Z" style="fill:#fff"/>
    <path d="M551.2,118.2H553v41.3a25.15,25.15,0,0,0,50.3.1V118.2h1.8v41.3a27,27,0,0,1-53.9,0V118.2Z" style="fill:#fff"/>
    <path d="M661.5,135.8a15.7,15.7,0,1,0-15.7,15.7,17.5,17.5,0,1,1-17.5,17.4H630a15.7,15.7,0,1,0,15.7-15.7,17.5,17.5,0,1,1,17.5-17.4Z" style="fill:#fff"/>
    <path d="M799.1,187.4,756,149.7v37l-16.3-.1V118.4h.2l43.1,37V118.5l16.3-.1v69Z" style="fill:#fff"/>
    <path d="M818.4,187V120h37.2l2.9,14.2H834.7v11.6h17v14.1h-17v13h25.8l-4,14.1Z" style="fill:#fff"/>
    <path d="M901.3,153.4l16.6-32.8L934.2,154l10-33.6h17.4l-25,67.6h-.4l-18-38.8L898.8,188h-.3l-22.9-67.7h16.2Z" style="fill:#fff"/>
    <path d="M1018.7,140.7c-2.8-2-5.1-3.6-6.9-4.7a36.1,36.1,0,0,0-3.9-2.3,13.36,13.36,0,0,0-6-1.2,6.72,6.72,0,0,0-2.4.4,8.17,8.17,0,0,0-2.3,1.1,5.51,5.51,0,0,0-1.7,1.7,4.39,4.39,0,0,0-.7,2.2q0,3.3,5.1,5.4c1.7.6,3.4,1.3,5.1,1.9s3.6,1.3,5.4,2a21.56,21.56,0,0,1,9.5,6.2c2.7,2.8,4,7,4,12.6,0,7.1-2.4,12.6-7.1,16.4s-10.7,5.8-17.9,5.8a39.5,39.5,0,0,1-12.3-1.9c-4-1.3-6.2-2.4-6.8-3.2l.1-18.3c7.1,5.6,13.2,8.4,18.2,8.4a11,11,0,0,0,3.1-.4,7.91,7.91,0,0,0,2.8-1.2,6.06,6.06,0,0,0,2-1.9,4.38,4.38,0,0,0,.8-2.5c0-2.2-1.7-4-5.2-5.4-1.7-.7-3.4-1.4-5.2-2.1s-3.6-1.4-5.5-2.1a24.3,24.3,0,0,1-9.5-6.1c-2.6-2.8-3.9-6.9-3.9-12.4a18.49,18.49,0,0,1,2-8.6,20.78,20.78,0,0,1,5.3-6.5,23.28,23.28,0,0,1,7.6-4.1,30.08,30.08,0,0,1,8.9-1.4,32.5,32.5,0,0,1,11.1,2c3.5,1.3,5.6,2,6.1,2.1v18.1Z" style="fill:#fff"/>
</svg>