<svg version="1.1" id="ECR" xmlns="http://www.w3.org/2000/svg" x="0px" y="0px"
	 viewBox="0 0 500 500" xml:space="preserve">
<path fill="#5DC3F1" d="M341.8,63.9c-6,4.8-9.8,10.7-14.9,15.5c-11.4,10.6-21.9,22.1-31.9,34c-3.5,4.2-5.5,4.5-10.2,3.1
	c-16.3-5-33.2-5.9-49.9-4.3c-28.6,2.7-54.4,13.4-76.8,31.8c-16.9,13.9-30.2,30.7-39.3,50.6c-6.4,14-10.5,28.6-12.1,44.1
	c-2.1,19.9-0.6,39.4,5.6,58.4c5.6,17.4,14.3,33.2,26,47.4c17.8,21.6,40.1,36.6,66.6,45.5c17.4,5.8,35.3,7.2,53.4,6.4
	c4.1-0.2,6.7,0.8,9,4.8c6.3,11.1,13.9,21.4,22.8,30.6c8.5,8.8,18.3,16.1,30.8,21.5c-14.4,5.6-28.3,9-42.6,10.8
	c-60.3,7.6-115.3-6-162.6-44.3c-94.7-76.6-99.6-203-42.6-285.4c33.7-48.7,80.2-78.7,138.4-89C256.4,37.4,299.9,43.2,341.8,63.9z"/>
<path fill="#5DC3F1" d="M128.1,254.5c-1-19.6,3.7-37.4,12.1-54.2c10.9-21.9,27.1-39.1,48.6-51.2c13.7-7.7,28.1-12.6,43.7-14.4
	c21.9-2.6,43.1-0.2,63.6,8.6c16.6,7.1,30.8,17.6,42.8,31c7.2,8,13,17,17.8,26.7c0.4,0.9,1.2,1.9,0.4,2.7c-0.6,0.5-1.9,0.6-2.8,0.4
	c-6.6-1-13.3-1.8-20-1.6c-2.5,0.1-4.1-0.8-5.6-2.9c-14-20.5-33.1-33.7-57-39.9c-20.5-5.3-40.6-3.5-60.2,4.4
	c-12.1,4.9-22.7,12-31.9,21.1c-14.5,14.5-23.3,32.1-27.1,52.2c-4,20.9-0.8,40.9,8.6,59.7c11.9,23.9,30.9,40.3,56.2,49.1
	c7.6,2.7,15.6,3.8,23.6,5c1.5,0.2,2.5,0.6,3.1,2.2c2.5,6,5,11.9,7.7,17.7c1,2.2,0.8,2.9-1.8,3.1c-17,0.7-33.2-2.7-48.9-9.2
	c-16.8-6.9-31-17.3-42.9-30.7c-13.9-15.6-23.1-33.6-27.6-54.1C128.6,271.6,127.6,262.9,128.1,254.5z"/>
<path fill="#5EC4F1" d="M332.4,214.2c17.9,1.1,38.2,1.9,58.3,5.8c16.7,3.3,33,7.5,48,15.6c14.8,8,26.6,18.7,31.6,35.5
	c3.9,13.2,2.6,26.3-1,39.3c-6.4,23-18.7,43-32.2,62.4C426,388.7,414,403.9,399.6,417c-12,10.8-25,20.3-41.2,24.3
	c-17.9,4.4-33.8,0.2-48.2-10.6c-14.9-11.1-25.5-25.8-34.9-41.5c-12.8-21.5-22.9-44.3-30.4-68.1c-5.2-16.4-8.4-33.3-6.6-50.4
	c2.4-22.2,14.2-38.2,35-47c12.9-5.4,26.3-8,40.3-8.7C319,214.7,324.4,214.5,332.4,214.2z M247.2,281.6c-0.7,3.1,0.4,8.1,1.2,12.8
	c1.4,8.4,3.5,16.7,6.1,24.8c7.2,22.8,16.9,44.4,29.1,65c8.5,14.5,18.3,27.9,31.8,38.2c8.3,6.4,17.6,11,28.4,11.1
	c10.9,0.1,20.9-3.6,30.1-9.2c14.5-8.9,26.5-20.6,37.3-33.7c17.1-20.7,32.6-42.4,43.3-67.2c5.6-13,9.6-26.3,8.1-40.9
	c-1-10.4-5.1-19.1-12.2-26.5c-9.5-9.9-21.7-15.3-34.3-19.7c-14.3-5-29.1-7.4-44-9.4c-12.2-1.7-24.4-2.5-36.7-3.1
	c-13.6-0.7-27.1,0.5-40.5,3.3c-11.6,2.4-22.7,6.3-31.7,14.3C251.5,251.6,247.5,264.9,247.2,281.6z"/>
</svg>
