<svg xmlns="http://www.w3.org/2000/svg" viewBox="0 0 500 500">
    <title>wolfram</title>
    <path d="M250.58,4,200.47,84.76l49.34,65.41,48.58-63.5Zm50.87,83-46.57,61.5,85.39-36.43,52.88-62.25ZM106.81,49.85,159.7,112.1l85.39,36.44L198.56,87Z" style="fill:#5dc4f2"/>
    <path d="M480.47,172.82l-92-23.43L341,216.15,416,243.4ZM344,220.45l60.44,70.48,75.26,31.66-63-76.22ZM393.54,49.56,350.13,118.7l-9,92.38,44.56-62.92Z" style="fill:#5dc4f2"/>
    <path d="M158.87,216.34l-47.43-66.73L19.53,173.13,83.9,243.61ZM20.31,322.86l75.16-31.65,60.34-70.48L83.23,246.65ZM158.87,211.34l-9-92.37L106.38,49.85l7.84,98.59Z" style="fill:#5dc4f2"/>
    <path d="M117.28,351.84l-8.71,94.5,87.88-37L196,329.49Zm128,62.45-46.11-80.52.11,77.07,50.53,84.93Zm-53.94-86.36-90-22.47L21.65,323.15l95.52,25.64Z" style="fill:#5dc4f2"/>
    <path d="M304.81,329.65l-.49,79.86,87.89,37L383.5,352ZM251,496,301.66,411l.09-77.08-46.19,80.52ZM479.23,323.34l-79.66-17.69-90,22.47L383.81,349Z" style="fill:#5dc4f2"/>
    <polygon points="243.12 150.46 161.25 125.39 161.63 210.79 247.41 246.07 243.12 150.46" style="fill:#5dc4f2"/>
    <polygon points="256.4 150.46 252.1 246.07 337.88 210.79 338.26 125.39 256.4 150.46" style="fill:#5dc4f2"/>
    <polygon points="341.51 222.84 253.25 249.24 308.05 326.31 392.68 296 341.51 222.84" style="fill:#5dc4f2"/>
    <polygon points="158.76 222.56 107.61 295.71 191.76 326.31 246.26 249.24 158.76 222.56" style="fill:#5dc4f2"/>
    <polygon points="248.94 251.91 199.6 331.67 249.91 400.62 300.88 331.86 248.94 251.91" style="fill:#5dc4f2"/>
    <rect x="199.99" y="199.41" width="105.29" height="23.14" style="fill:#fff"/>
    <rect x="199.61" y="251.52" width="105.29" height="23.14" style="fill:#fff"/>
</svg>