<svg id="ecb7c29f-6c73-4f84-86a6-9eb04a9819c2" data-name="travelviser" xmlns="http://www.w3.org/2000/svg" viewBox="0 0 500 500">
<path style="fill: #5dc4f2" d="M246.98,18.48c60.46,2.52,106.56,29.31,137.8,81.57c5.27,8.81,4.62,13.33-6.57,13.55
	c-6.45,0.13-12.93,0.16-19.34,0.78c-10.01,0.97-16.75-3.03-22.97-10.98c-17.83-22.77-40.73-37.54-69.72-43
	c-61.6-11.61-124.82,37.13-129.2,99.8c-3.43,49.1,15.66,86.22,58.02,111.11c59.62,35.04,141.81,0.05,159.17-67.55
	c6.34-24.67,6.34-24.67,31.76-24.61c18.61,0.04,18.44,0.04,17.91,18.34c-0.64,22.18-8.14,42.32-19.46,60.8
	c-44.3,72.32-89.11,144.32-133.75,216.42c-6.8,10.99-9.01,11.1-15.48,0.1c-42.54-72.36-85.73-144.36-127.27-217.29
	C54.8,164.34,107.92,46.4,212.39,22.93C223.79,20.37,235.08,17.88,246.98,18.48z"/>
<path style="fill: #5dc4f2" d="M201.72,216.24c0-14.21-0.33-28.44,0.14-42.64c0.24-7.33-2.3-10.15-9.6-9.86
	c-9.03,0.37-18.09,0.1-27.13,0.01c-3.41-0.03-8.2,0.72-9.59-2.4c-5.85-13.09-3.66-27.11-1.61-40.44c1.41-9.19,11.1-6.33,17.48-6.24
	c71.02,1.07,142.03,2.48,213.05,3.62c9.44,0.15,18.9-0.74,28.36-0.98c2.56-0.06,5.56,0.17,6.6,3c1.08,2.96-1.43,4.67-3.44,6.25
	c-16.24,12.78-32.54,25.47-48.73,38.31c-4.78,3.79-10.24,4.04-15.9,4.02c-22.4-0.08-44.81,0.29-67.19-0.36
	c-11.04-0.32-15.44,3.26-15.21,14.74c0.53,25.4-0.32,50.83,0,76.24c0.15,12.12-4.82,15.84-16.6,14.54
	c-12.79-1.41-25.78-1.4-38.68-1.49c-8.63-0.06-12.57-3.5-12.37-12.38c0.33-14.64,0.09-29.29,0.09-43.93
	C201.5,216.24,201.61,216.24,201.72,216.24z"/>
</svg>
