<svg xmlns="http://www.w3.org/2000/svg" viewBox="0 0 500 500">
    <title>vpn</title>
    <path d="M340,388.24a45.72,45.72,0,0,1-39.17,11.06c-35.07-6.6-101.47-21.38-87.46-36.73,21.72-23.8-11.36-40.34-45.49-29s-25.87-29-34.14-63.1,4.14-44.48-11.37-60c-12.39-12.38-13.41-11.32-20.5-15.82a20.77,20.77,0,0,1-5.31-30.2c4.16-5.41,8.49-10.76,10-12.49,16.47-18.71,59.1-32,60.46,16.79.87,31.15,46.53,43.78,61.44,62.39s40.78,29,38.69,54.81,37.23,32.06,35.17-6.21v0a27.6,27.6,0,0,0-7.48-17.42,47.84,47.84,0,0,1-13-33V135.81c0-14,8.46-28.65,15.41-35.36,6.26-6,19.71-13.2,32.18-13.2h4.68a209.45,209.45,0,0,0-105.6-28.91c-113.58,0-205.95,92.55-205.95,206.14S114.9,470.71,228.47,470.71c109.3,0,199-86.06,205.56-192.92H394.41A167.23,167.23,0,0,1,340,388.24Z" style="fill:#5dc4f2"/>
    <path d="M459.17,116.9H442.71V84.34c0-25.88-20.46-47.26-46.34-47.26h-4.95c-25.88,0-46.55,21.38-46.55,47.26V116.9H329.71a18.29,18.29,0,0,0-18.29,18.29V228.6a18.3,18.3,0,0,0,18.29,18.31H459.17a18.29,18.29,0,0,0,18.3-18.31V135.19A18.29,18.29,0,0,0,459.17,116.9Zm-46.06,0H374.49V84.34c0-9.54,7.4-17.66,16.93-17.66h4.95c9.54,0,16.74,8.12,16.74,17.66Z" style="fill:#5dc4f2"/>
</svg>